<?xml version="1.0" standalone="no"?>
<!DOCTYPE svg PUBLIC "-//W3C//DTD SVG 20010904//EN"
 "http://www.w3.org/TR/2001/REC-SVG-20010904/DTD/svg10.dtd">
<svg version="1.0" xmlns="http://www.w3.org/2000/svg"
 width="200.000000pt" height="200.000000pt" viewBox="0 0 200.000000 200.000000"
 preserveAspectRatio="xMidYMid meet">

<g transform="translate(0.000000,200.000000) scale(0.100000,-0.100000)"
fill="#000000" stroke="none">
<path d="M100 1400 l0 -320 55 0 55 0 1 193 0 192 97 -192 96 -193 52 0 51 0
89 190 89 189 3 -189 2 -190 55 0 55 0 -2 318 -3 317 -54 0 -54 0 -116 -248
-116 -247 -125 250 -125 250 -52 0 -53 0 0 -320z"/>
<path d="M904 1711 c-2 -2 -4 -24 -4 -47 0 -42 1 -43 38 -46 l37 -3 0 -220 0
-220 -37 -3 c-38 -3 -38 -4 -38 -48 l0 -44 130 0 130 0 0 44 c0 44 0 45 -37
48 l-38 3 -3 223 -2 222 35 0 35 0 0 48 0 47 -121 0 c-66 0 -123 -2 -125 -4z"/>
<path d="M1592 1610 c-41 -58 -79 -109 -83 -113 -4 -5 -42 41 -85 102 l-79
110 -67 0 -68 1 112 -154 c61 -85 111 -157 110 -161 0 -3 -50 -76 -111 -161
l-111 -154 65 0 65 0 63 87 c34 47 71 97 82 110 l20 25 79 -111 79 -111 64 0
c49 0 62 3 57 13 -5 6 -47 66 -94 132 -48 66 -94 132 -104 147 l-17 27 106
146 c59 81 108 152 111 159 3 7 -15 11 -57 11 l-61 0 -76 -105z"/>
<path d="M229 982 c-169 -88 -169 -326 0 -414 102 -53 210 -32 288 56 81 92
81 210 0 302 -78 88 -186 109 -288 56z m168 -91 c48 -22 73 -62 73 -117 0
-104 -119 -164 -208 -106 -69 45 -69 169 0 214 47 31 81 33 135 9z"/>
<path d="M710 680 l0 -320 50 0 50 0 2 228 3 227 103 -145 c56 -80 129 -182
162 -227 l60 -83 50 0 50 0 0 320 0 320 -50 0 -50 0 0 -220 c0 -121 -3 -220
-7 -220 -5 1 -77 100 -162 220 l-154 220 -53 0 -54 0 0 -320z"/>
<path d="M1390 680 l0 -320 213 2 212 3 3 52 3 53 -160 0 -161 0 0 80 0 80
130 0 130 0 0 55 0 55 -130 0 -130 0 0 80 0 80 160 0 160 0 0 50 0 50 -215 0
-215 0 0 -320z"/>
<path d="M122 418 l3 -53 210 0 210 0 3 53 3 52 -216 0 -216 0 3 -52z"/>
</g>
</svg>
