<?xml version="1.0" standalone="no"?>
<!DOCTYPE svg PUBLIC "-//W3C//DTD SVG 20010904//EN"
 "http://www.w3.org/TR/2001/REC-SVG-20010904/DTD/svg10.dtd">
<svg version="1.0" xmlns="http://www.w3.org/2000/svg"
 width="200.000000pt" height="200.000000pt" viewBox="0 0 200.000000 200.000000"
 preserveAspectRatio="xMidYMid meet">

<g transform="translate(0.000000,200.000000) scale(0.100000,-0.100000)"
fill="#000000" stroke="none">
<path d="M100 1045 l0 -235 860 0 860 0 0 235 0 235 -860 0 -860 0 0 -235z
m1680 0 l0 -195 -820 0 -820 0 0 195 0 195 820 0 820 0 0 -195z"/>
<path d="M246 1158 c-3 -13 -12 -63 -21 -113 -8 -49 -18 -100 -20 -112 -5 -19
-1 -23 19 -23 21 0 26 6 32 38 3 20 9 53 13 72 l7 35 37 -77 c19 -43 39 -78
42 -78 3 0 23 35 42 78 l37 77 7 -35 c4 -19 10 -52 13 -72 6 -32 11 -38 33
-38 21 0 24 4 20 23 -3 12 -13 65 -22 117 -19 111 -24 130 -34 130 -5 0 -27
-42 -51 -92 l-43 -93 -46 93 c-25 50 -49 92 -53 92 -4 0 -10 -10 -12 -22z"/>
<path d="M567 1173 c-4 -3 -7 -64 -7 -135 l0 -128 25 0 25 0 0 135 c0 124 -1
135 -18 135 -10 0 -22 -3 -25 -7z"/>
<path d="M670 1170 c0 -6 16 -34 35 -63 19 -28 35 -55 35 -60 0 -4 -15 -31
-33 -60 -18 -29 -37 -58 -41 -64 -5 -9 1 -13 22 -13 23 0 35 9 57 42 30 46 31
46 75 -21 11 -16 23 -22 43 -19 l27 3 -40 60 c-22 33 -40 65 -40 70 0 6 16 34
35 62 42 62 43 73 10 73 -18 0 -32 -11 -50 -40 -14 -22 -27 -40 -30 -40 -3 0
-16 18 -30 40 -18 29 -32 40 -50 40 -14 0 -25 -5 -25 -10z"/>
<path d="M983 1160 c-60 -36 -82 -129 -46 -191 24 -40 94 -73 140 -66 77 13
132 88 119 162 -18 94 -131 145 -213 95z m130 -50 c49 -39 42 -116 -14 -145
-40 -21 -63 -19 -98 11 -88 74 21 205 112 134z"/>
<path d="M1250 1045 l0 -135 25 0 c24 0 24 2 27 83 l3 84 80 -88 c44 -49 83
-88 88 -89 4 0 7 63 7 140 l0 140 -25 0 c-25 0 -25 -1 -25 -82 l0 -83 -83 83
c-45 45 -86 82 -90 82 -4 0 -7 -61 -7 -135z"/>
<path d="M1557 1173 c-4 -3 -7 -64 -7 -135 l0 -128 90 0 c83 0 90 2 90 20 0
16 -8 19 -62 22 -63 3 -63 3 -63 33 0 29 2 30 53 33 48 3 52 5 52 28 0 22 -3
24 -54 24 -51 0 -53 1 -52 28 1 26 3 27 64 30 58 3 62 4 62 27 0 25 -2 25 -83
25 -46 0 -87 -3 -90 -7z"/>
</g>
</svg>
